<?xml version="1.0" standalone="no"?>
<!DOCTYPE svg PUBLIC "-//W3C//DTD SVG 20010904//EN"
 "http://www.w3.org/TR/2001/REC-SVG-20010904/DTD/svg10.dtd">
<svg version="1.0" xmlns="http://www.w3.org/2000/svg"
 width="512.000000pt" height="512.000000pt" viewBox="0 0 512.000000 512.000000"
 preserveAspectRatio="xMidYMid meet">
<metadata>
Created by potrace 1.14, written by Peter Selinger 2001-2017
</metadata>
<g transform="translate(0.000000,512.000000) scale(0.100000,-0.100000)"
fill="#000000" stroke="none">
<path d="M0 2560 l0 -2560 2560 0 2560 0 0 2560 0 2560 -2560 0 -2560 0 0
-2560z m3435 850 c50 -10 128 -32 173 -50 83 -32 196 -101 215 -131 7 -12 -14
-51 -95 -172 l-104 -156 -44 36 c-97 76 -236 123 -367 123 -99 0 -157 -16
-198 -54 -66 -62 -55 -130 26 -171 26 -14 125 -48 221 -76 208 -62 325 -111
410 -172 118 -83 170 -179 176 -323 8 -167 -36 -284 -147 -394 -209 -207 -607
-247 -987 -101 -84 33 -234 124 -234 144 0 10 46 85 158 260 l43 67 42 -35
c59 -51 167 -101 272 -126 120 -28 288 -24 352 9 43 23 73 64 73 102 0 73 -75
118 -298 180 -264 74 -374 128 -464 229 -169 188 -152 472 40 652 177 167 426
221 737 159z m-1995 -486 l315 -477 3 477 2 476 215 0 215 0 0 -840 0 -840
-222 2 -223 3 -315 483 -315 483 -3 -485 -2 -486 -215 0 -215 0 0 840 0 840
223 0 222 0 315 -476z m2939 -761 c122 -44 185 -174 147 -305 -36 -124 -179
-201 -314 -168 -116 27 -189 108 -199 217 -7 79 10 136 58 188 80 86 189 110
308 68z"/>
</g>
</svg>
