<svg width="50" height="50" viewBox="0 0 50 50" fill="none" xmlns="http://www.w3.org/2000/svg">
<g clip-path="url(#clip0_39_11)">
<circle cx="25" cy="25" r="25" fill="black"/>
<path d="M14 19.2024L22.525 24.5167C23.9917 25.431 26.0083 25.431 27.475 24.5167L36 19.2024" stroke="white" stroke-width="2.5" stroke-linecap="round" stroke-linejoin="round"/>
<path d="M24 17L13.4859 17C12.5688 17.4939 12 18.431 12 19.448V30.402C12 31.9486 13.2934 33.2024 14.8889 33.2024H35.1111C36.7066 33.2024 38 31.9486 38 30.402V19.448C38 18.431 37.4312 17.4939 36.5141 17L24 17ZM24 17C22.5 17 26.3729 17 24 17Z" stroke="white" stroke-width="2.5" stroke-linecap="round"/>
</g>
<defs>
<clipPath id="clip0_39_11">
<rect width="50" height="50" fill="white"/>
</clipPath>
</defs>
</svg>
