<svg width="320" height="186" viewBox="0 0 320 186" fill="none" xmlns="http://www.w3.org/2000/svg">
<path fill-rule="evenodd" clip-rule="evenodd" d="M149.058 148.296C131.967 148.832 112.997 147.243 94.0266 144.875C78.4345 142.932 63.7984 138.257 49.9208 131.197C44.1316 128.251 38.439 124.936 34.0759 119.752C28.4511 113.066 27.8282 105.708 30.6056 97.882C33.4301 89.9153 39.0928 84.0618 45.9748 79.5079C57.1222 72.1307 69.3463 67.3608 82.6701 65.6751C84.3512 65.4625 85.2234 64.7983 85.9507 63.2677C99.3055 35.162 121.387 18.145 151.94 12.75C162.393 10.9045 172.945 12.6144 183.084 16.2421C206.917 24.7695 224.195 40.4421 234.82 63.4033C235.572 65.0293 236.515 65.6694 238.244 65.9451C251.827 68.0917 264.353 72.9994 275.381 81.2431C278.744 83.7573 281.891 86.8725 284.293 90.306C293.224 103.072 291.641 112.864 281.254 122.779C276.84 126.992 271.705 130.049 266.127 132.438C256.023 136.765 245.601 140.166 234.773 141.963C226.583 143.325 218.273 144.025 209.992 144.758C195.509 146.044 181.013 147.233 166.507 148.239C161.394 148.593 156.231 148.296 149.058 148.296ZM156.348 145.403C162.027 145.403 167.734 145.758 173.382 145.332C187.409 144.272 201.44 143.108 215.411 141.498C225.267 140.364 235.033 138.422 244.844 136.87C246.459 136.615 247.1 135.922 246.905 134.173C245.84 124.635 245.174 115.045 243.799 105.555C242.343 95.5091 239.759 85.6843 236.227 76.1353C235.804 74.9931 235.31 74.4508 233.899 74.5496C214.399 75.9159 194.894 77.1948 175.394 78.5392C174.504 78.6036 173.584 78.9943 172.782 79.4252C170.285 80.7639 167.976 82.5703 165.35 83.5217C156.829 86.6105 148.76 85.4625 141.188 80.3962C139.939 79.5596 138.22 79.031 136.714 79.0287C119.665 78.9816 102.609 79.2689 85.6233 77.3809C84.3328 77.2385 83.8548 77.7383 83.4813 78.892C77.5508 97.0891 74.3207 115.736 74.1645 134.888C74.1288 139.133 74.0817 138.324 77.4819 139.141C91.2033 142.442 105.212 143.954 119.233 144.929C131.569 145.791 156.344 145.628 156.348 145.403ZM70.1334 137.018C70.7252 113.055 74.6264 90.2704 83.494 68.3238C82.8298 68.3238 82.3644 68.2675 81.9162 68.3318C69.9461 70.0566 58.8906 74.3588 48.7165 80.7581C41.8082 85.1052 36.0328 90.7277 33.0693 98.6071C30.2816 106.028 31.3445 112.798 36.9245 118.668C42.1391 124.155 48.5695 127.884 55.3181 131.036C60.0708 133.256 65.0498 134.986 70.1334 137.018ZM237.164 68.3456C246.095 89.8636 249.499 112.053 250.697 134.911C251.816 134.619 252.669 134.472 253.466 134.177C257.328 132.754 261.195 131.332 265.028 129.831C272.252 127.002 278.122 122.341 282.976 116.355C288.022 110.137 288.655 103.459 285.057 96.3077C282.512 91.2483 278.858 87.1287 274.431 83.701C265.013 76.41 254.205 72.1192 242.732 69.3453C241.056 68.9408 239.331 68.7305 237.164 68.3456ZM213.387 39.6044C213.18 39.1206 213.155 38.9735 213.071 38.8827C212.795 38.584 212.507 38.3002 212.211 38.0221C203.611 29.9485 193.733 24.0307 182.633 20.0065C172.572 16.357 162.217 14.8379 151.72 16.5489C133.539 19.5124 118.068 27.9686 105.235 41.2039C104.647 41.8095 104.103 42.461 103.33 43.3251C103.972 43.4389 104.282 43.5458 104.59 43.5423C113.786 43.4642 122.984 43.4079 132.177 43.2275C132.925 43.2114 133.777 42.4438 134.37 41.8221C135.951 40.1743 137.212 38.1588 138.965 36.7431C144.833 32.0065 151.685 30.3748 159.119 31.0608C166.282 31.7216 172.39 34.4794 177.066 40.1341C177.606 40.7857 178.714 41.328 179.55 41.3154C184.349 41.2384 189.148 41.0224 193.941 40.7673C200.343 40.4271 206.739 40.0066 213.387 39.6044ZM234.233 72.295C234.233 71.5309 234.291 71.3137 234.224 71.1494C230.096 60.7707 224.716 51.1436 217.029 42.9448C216.489 42.368 215.38 42.0175 214.562 42.0589C203.496 42.6208 192.433 43.27 181.371 43.9066C180.87 43.9365 180.375 44.056 179.633 44.1709C185.417 55.2827 183.681 65.6958 176.943 76.2617C196.44 74.9127 215.347 73.605 234.233 72.295ZM156.277 33.69C140.189 33.089 131.835 45.9095 132.078 57.898C132.385 73.0098 142.04 82.1417 156.218 82.1911C170.365 82.2393 180.116 73.1718 180.52 58.0589C180.84 46.1577 172.566 33.0614 156.277 33.69ZM85.0843 74.6392C102.105 76.6995 118.874 76.5835 135.851 76.3893C129.366 66.7679 127.239 56.842 131.989 46.1324C131.571 46.0129 131.442 45.944 131.316 45.9463C121.581 45.9819 111.847 46.0026 102.114 46.1186C101.379 46.1267 100.429 46.6621 99.9628 47.2551C98.3759 49.2694 96.9223 51.393 95.4848 53.5188C91.1021 59.9997 88.0214 67.1138 85.0843 74.6392Z" fill="black"/>
<path fill-rule="evenodd" clip-rule="evenodd" d="M119.232 144.931C105.211 143.954 91.2021 142.443 77.4808 139.143C74.0817 138.326 74.1277 139.135 74.1633 134.889C74.3208 115.736 77.5497 97.0892 83.4802 78.8932C83.8548 77.7395 84.3328 77.2397 85.6221 77.3821C102.608 79.2701 119.663 78.9828 136.713 79.0299C138.219 79.0334 139.938 79.5608 141.187 80.3974C148.759 85.4637 156.828 86.6105 165.349 83.5229C167.974 82.5715 170.284 80.7651 172.781 79.4264C173.583 78.9966 174.503 78.6048 175.393 78.5404C194.893 77.196 214.398 75.9182 233.898 74.5507C235.31 74.4519 235.803 74.9943 236.226 76.1365C239.757 85.6855 242.342 95.5103 243.798 105.556C245.173 115.046 245.838 124.636 246.904 134.174C247.099 135.923 246.458 136.616 244.843 136.871C235.032 138.424 225.266 140.365 215.41 141.499C201.438 143.108 187.408 144.273 173.381 145.333C167.734 145.759 131.569 145.791 119.232 144.931ZM205.936 136.815C210.497 137.012 213.402 134.529 215.7 130.988C218.304 126.975 217.288 122.484 213.447 119.624C208.257 115.763 200.463 117.047 196.197 120.328C192.411 123.238 191.809 128.442 195.018 131.755C197.962 134.793 201.664 136.524 205.936 136.815ZM111.6 138.804C114.956 138.992 117.749 137.47 120.457 135.793C123.118 134.145 125.138 131.906 124.857 128.581C124.565 125.143 122.761 122.599 119.537 121.02C116.447 119.506 113.215 118.982 109.895 119.405C105.53 119.958 100.448 123.556 100.695 128.778C100.933 133.823 106.201 138.76 111.6 138.804ZM122.387 99.0507C122.139 97.5143 122.097 95.7826 121.561 94.221C120.293 90.5163 115.884 89.643 113.256 92.5629C112.386 93.5293 111.475 94.8496 111.399 96.0573C111.233 98.6496 111.315 101.329 111.828 103.867C112.37 106.539 114.155 107.648 116.64 107.633C119.209 107.617 120.994 106.381 121.707 103.804C122.116 102.332 122.155 100.756 122.387 99.0507ZM210.889 99.1345C210.64 97.6051 210.599 95.8033 210.038 94.1819C208.79 90.5726 204.479 89.6671 201.866 92.4549C200.936 93.4454 199.985 94.8381 199.896 96.1078C199.713 98.6933 199.822 101.379 200.347 103.91C200.901 106.578 202.691 107.667 205.189 107.634C207.749 107.603 209.51 106.35 210.224 103.762C210.613 102.351 210.657 100.843 210.889 99.1345Z" fill="#00DC82"/>
<path fill-rule="evenodd" clip-rule="evenodd" d="M70.1334 137.018C65.0498 134.986 60.0719 133.257 55.3192 131.036C48.5706 127.884 42.1402 124.156 36.9256 118.668C31.3445 112.798 30.2815 106.028 33.0704 98.6071C36.0339 90.7278 41.8081 85.1052 48.7177 80.7582C58.8918 74.3589 69.9472 70.0567 81.9174 68.3319C82.3655 68.2675 82.8309 68.3238 83.4951 68.3238C74.6264 90.2704 70.724 113.054 70.1334 137.018Z" fill="#323232"/>
<path fill-rule="evenodd" clip-rule="evenodd" d="M237.164 68.3456C239.331 68.7305 241.056 68.9408 242.732 69.3453C254.205 72.1192 265.013 76.41 274.431 83.701C278.859 87.1276 282.512 91.2471 285.057 96.3077C288.656 103.46 288.022 110.137 282.976 116.355C278.121 122.341 272.251 127.002 265.028 129.831C261.195 131.333 257.329 132.754 253.466 134.177C252.669 134.472 251.816 134.619 250.697 134.91C249.501 112.053 246.096 89.8624 237.164 68.3456Z" fill="#323232"/>
<path fill-rule="evenodd" clip-rule="evenodd" d="M213.387 39.6044C206.739 40.0066 200.343 40.4272 193.942 40.7685C189.148 41.0247 184.349 41.2396 179.552 41.3166C178.715 41.3292 177.607 40.7869 177.067 40.1353C172.392 34.4795 166.283 31.7228 159.121 31.062C151.686 30.376 144.834 32.0077 138.967 36.7443C137.212 38.1589 135.951 40.1744 134.371 41.8233C133.778 42.445 132.926 43.2126 132.178 43.2287C122.985 43.4091 113.788 43.4654 104.591 43.5435C104.283 43.547 103.973 43.439 103.331 43.3263C104.104 42.4622 104.648 41.8118 105.236 41.2051C118.069 27.9698 133.541 19.5136 151.722 16.5501C162.219 14.8391 172.573 16.3582 182.635 20.0077C193.734 24.0319 203.613 29.9486 212.212 38.0233C212.508 38.3013 212.796 38.5852 213.072 38.8839C213.155 38.9736 213.18 39.1207 213.387 39.6044Z" fill="#00DC82"/>
<path fill-rule="evenodd" clip-rule="evenodd" d="M234.233 72.2952C215.346 73.6051 196.439 74.9116 176.944 76.2618C183.683 65.697 185.418 55.2828 179.634 44.171C180.377 44.0561 180.871 43.9377 181.372 43.9067C192.434 43.269 203.498 42.6209 214.563 42.059C215.383 42.0176 216.492 42.3681 217.031 42.9449C224.717 51.1437 230.097 60.7709 234.226 71.1495C234.291 71.315 234.233 71.531 234.233 72.2952Z" fill="#6C6C6C"/>
<path fill-rule="evenodd" clip-rule="evenodd" d="M156.277 33.6901C172.567 33.0615 180.84 46.159 180.521 58.059C180.116 73.1719 170.365 82.2395 156.219 82.1912C142.042 82.1418 132.386 73.0111 132.079 57.8982C131.834 45.9085 140.188 33.088 156.277 33.6901ZM156.456 70.2532C163.198 70.2854 168.895 64.7468 168.989 58.1946C169.098 50.5864 163.034 45.9981 157.005 45.5235C148.87 44.88 143.985 52.0929 144.079 59.2254C144.154 64.8904 150.065 70.2233 156.456 70.2532Z" fill="#959595"/>
<path fill-rule="evenodd" clip-rule="evenodd" d="M85.0842 74.6392C88.0213 67.1137 91.1021 59.9996 95.4847 53.5199C96.9222 51.3929 98.3758 49.2705 99.9627 47.2562C100.429 46.6621 101.378 46.1278 102.114 46.1197C111.847 46.0025 121.581 45.9829 131.316 45.9473C131.442 45.945 131.572 46.0151 131.989 46.1335C127.239 56.8431 129.366 66.769 135.851 76.3904C118.873 76.5846 102.105 76.6995 85.0842 74.6392Z" fill="#6C6C6C"/>
<path fill-rule="evenodd" clip-rule="evenodd" d="M159.845 133.63C153.51 133.182 149.028 132.935 144.138 132.363C143.154 132.249 142.094 131.977 141.28 131.448C140.657 131.045 139.892 130.039 140.003 129.456C141.205 123.06 142.582 116.663 147.515 111.891C158.601 101.17 171.653 107.703 176.151 117.179C177.81 120.674 178.695 124.559 179.738 128.319C180.301 130.346 179.641 131.243 177.548 131.552C171.349 132.469 166.178 133.127 159.845 133.63ZM144.616 126.54C148.332 121.176 153.283 119.022 159.228 118.912C165.088 118.802 170.493 119.98 174.899 124.407C174.023 121.799 173.198 119.206 171.81 116.955C168.697 111.901 161.452 109.229 156.221 110.913C150.189 112.854 145.141 119.423 144.616 126.54ZM145.934 128.848C155.765 130.461 165.229 130.233 174.844 128.233C170.528 122.002 164.428 120.628 157.746 121.182C152.68 121.601 148.506 123.853 145.934 128.848Z" fill="black"/>
<path fill-rule="evenodd" clip-rule="evenodd" d="M205.936 136.815C201.663 136.524 197.961 134.793 195.019 131.756C191.809 128.443 192.412 123.239 196.197 120.33C200.463 117.047 208.257 115.763 213.447 119.625C217.288 122.484 218.304 126.975 215.7 130.989C213.402 134.529 210.497 137.012 205.936 136.815Z" fill="#FF958F"/>
<path fill-rule="evenodd" clip-rule="evenodd" d="M111.6 138.804C106.201 138.76 100.933 133.823 100.694 128.777C100.447 123.555 105.529 119.957 109.893 119.403C113.214 118.981 116.446 119.505 119.535 121.019C122.76 122.598 124.564 125.142 124.856 128.58C125.138 131.906 123.118 134.145 120.456 135.792C117.749 137.47 114.957 138.992 111.6 138.804Z" fill="#FF958F"/>
<path fill-rule="evenodd" clip-rule="evenodd" d="M122.388 99.0507C122.155 100.755 122.116 102.331 121.707 103.805C120.993 106.381 119.209 107.617 116.64 107.633C114.157 107.648 112.371 106.539 111.829 103.867C111.315 101.329 111.233 98.6497 111.399 96.0573C111.475 94.8496 112.385 93.5293 113.256 92.5629C115.884 89.643 120.293 90.5175 121.561 94.221C122.096 95.7838 122.139 97.5144 122.388 99.0507Z" fill="black"/>
<path fill-rule="evenodd" clip-rule="evenodd" d="M210.888 99.1344C210.656 100.843 210.613 102.351 210.223 103.761C209.508 106.348 207.749 107.602 205.188 107.633C202.69 107.664 200.901 106.577 200.346 103.909C199.822 101.377 199.711 98.692 199.895 96.1066C199.984 94.838 200.935 93.4453 201.865 92.4536C204.478 89.6659 208.789 90.5714 210.037 94.1807C210.599 95.8021 210.64 97.605 210.888 99.1344Z" fill="black"/>
<path fill-rule="evenodd" clip-rule="evenodd" d="M156.456 70.2531C150.065 70.2233 144.154 64.8903 144.08 59.2241C143.986 52.0917 148.871 44.8799 157.006 45.5223C163.036 45.9968 169.098 50.5852 168.99 58.1934C168.895 64.7467 163.198 70.2853 156.456 70.2531ZM156.431 67.6654C161.733 67.6861 166.345 63.3137 166.384 58.2232C166.429 52.4732 161.993 48.1445 156.003 48.0916C150.661 48.0422 146.729 52.6386 146.679 58.9874C146.647 63.3827 151.432 67.6435 156.431 67.6654Z" fill="black"/>
<path fill-rule="evenodd" clip-rule="evenodd" d="M144.616 126.541C145.141 119.423 150.189 112.854 156.221 110.913C161.453 109.229 168.697 111.9 171.81 116.955C173.197 119.206 174.023 121.801 174.899 124.407C170.493 119.979 165.089 118.803 159.228 118.912C153.283 119.022 148.331 121.177 144.616 126.541Z" fill="#CC4E4E"/>
<path fill-rule="evenodd" clip-rule="evenodd" d="M145.934 128.848C148.506 123.853 152.68 121.599 157.746 121.182C164.427 120.628 170.528 122.001 174.844 128.233C165.229 130.232 155.764 130.461 145.934 128.848Z" fill="#E2807D"/>
<path fill-rule="evenodd" clip-rule="evenodd" d="M156.431 67.6654C151.432 67.6435 146.646 63.3827 146.679 58.9862C146.729 52.6375 150.66 48.0411 156.003 48.0905C161.993 48.1433 166.429 52.4731 166.384 58.2221C166.345 63.3137 161.734 67.6872 156.431 67.6654Z" fill="#FFF9D5"/>
<path fill-rule="evenodd" clip-rule="evenodd" d="M77.6438 129.51C85.4439 120.98 92.6372 124.322 94.8355 132.489C95.8754 131.639 96.8774 130.75 97.9518 129.96C104.218 125.329 110.867 129.904 111.239 136.435C111.436 139.923 110.724 143.509 110.091 146.991C108.985 153.083 107.74 159.163 106.297 165.186C105.808 167.224 104.766 169.233 103.572 170.977C100.347 175.702 94.3264 175.925 90.6033 171.507C89.437 170.126 88.6464 168.432 87.5559 166.675C85.4864 169.779 82.8297 172.116 78.4482 170.751C74.5608 169.542 72.412 166.8 71.1055 162.916C70.6171 163.591 70.2643 164.07 69.9184 164.555C66.5343 169.305 60.6785 169.502 56.7452 165.119C54.116 162.191 53.5128 158.69 54.131 155.122C55.3893 147.872 56.9222 140.669 58.5723 133.496C59.1388 131.036 60.1488 128.595 61.3887 126.388C62.794 123.893 65.2405 122.361 68.05 121.854C72.081 121.13 75.5007 123.438 77.0233 127.586C77.2485 128.199 77.4255 128.831 77.6438 129.51ZM74.2494 131.718C74.2252 131.168 74.2689 130.601 74.1632 130.064C73.468 126.539 70.5091 123.362 66.2494 126.205C64.3706 127.459 63.3008 129.182 62.7584 131.207C61.1715 137.129 59.5352 143.051 58.2942 149.05C57.6311 152.26 57.5691 155.629 57.5622 158.929C57.5564 161.552 59.187 163.385 61.5576 164.403C64.0351 165.467 65.6461 165.172 66.8917 162.815C68.3637 160.025 69.6289 157.032 70.3827 153.981C71.5685 149.166 72.2534 144.23 73.152 139.343C73.6151 136.819 74.3482 131.739 74.2494 131.718ZM91.3146 134.523C91.2882 133.97 91.3376 133.404 91.2284 132.869C90.5149 129.402 87.5755 126.127 83.3043 129.008C81.6071 130.154 80.4809 131.659 79.9937 133.484C78.2919 139.88 76.6119 146.29 75.2445 152.762C74.6297 155.665 74.6309 158.731 74.6194 161.726C74.6114 164.389 76.7579 166.77 79.3089 167.456C81.1566 167.955 82.9182 167.748 83.7582 165.92C85.2037 162.769 86.7067 159.575 87.5663 156.24C88.7521 151.619 89.368 146.85 90.2276 142.145C90.6872 139.622 91.4111 134.54 91.3146 134.523ZM91.1848 162.628C91.3767 167.821 93.1877 170.359 96.2649 171.087C98.0173 171.5 99.6054 171.214 100.399 169.574C101.745 166.784 103.192 163.957 103.941 160.98C105.223 155.878 106.072 150.658 106.963 145.464C107.448 142.644 107.959 139.764 107.905 136.923C107.815 132.08 103.727 129.999 99.88 132.809C98.4953 133.823 97.2026 135.506 96.7349 137.134C94.9423 143.374 93.4071 149.692 91.9765 156.027C91.3985 158.582 91.3388 161.254 91.1848 162.628Z" fill="black"/>
<path fill-rule="evenodd" clip-rule="evenodd" d="M73.1521 139.341C72.2535 144.228 71.5686 149.165 70.3828 153.98C69.629 157.029 68.3649 160.024 66.8918 162.814C65.645 165.171 64.0351 165.466 61.5577 164.402C59.1871 163.384 57.5565 161.552 57.5623 158.928C57.568 155.628 57.6312 152.258 58.2943 149.049C59.5353 143.048 61.1716 137.128 62.7585 131.206C63.3009 129.181 64.3707 127.457 66.2495 126.204C70.5092 123.361 73.4692 126.538 74.1633 130.062C74.269 130.601 74.2253 131.167 74.2495 131.717C74.3483 131.739 73.6152 136.819 73.1521 139.341Z" fill="#00DC82"/>
<path fill-rule="evenodd" clip-rule="evenodd" d="M90.2254 142.145C89.3659 146.85 88.7499 151.618 87.5641 156.24C86.7057 159.574 85.2015 162.769 83.756 165.92C82.9171 167.748 81.1544 167.955 79.3067 167.456C76.7557 166.769 74.6103 164.389 74.6172 161.726C74.6287 158.732 74.6275 155.665 75.2423 152.762C76.6097 146.289 78.2897 139.88 79.9915 133.484C80.4788 131.659 81.6049 130.156 83.3021 129.008C87.5744 126.127 90.5127 129.403 91.2262 132.869C91.3354 133.404 91.2871 133.969 91.3124 134.523C91.4112 134.54 90.6873 139.622 90.2254 142.145Z" fill="#00DC82"/>
<path fill-rule="evenodd" clip-rule="evenodd" d="M91.1848 162.628C91.3388 161.255 91.3985 158.582 91.9765 156.029C93.4072 149.693 94.9424 143.374 96.735 137.135C97.2026 135.507 98.4954 133.825 99.88 132.81C103.727 130 107.815 132.081 107.905 136.924C107.959 139.765 107.448 142.645 106.963 145.465C106.073 150.659 105.223 155.879 103.941 160.981C103.192 163.959 101.745 166.785 100.399 169.575C99.6065 171.216 98.0174 171.502 96.265 171.089C93.1877 170.359 91.3779 167.82 91.1848 162.628Z" fill="#00DC82"/>
<path fill-rule="evenodd" clip-rule="evenodd" d="M62.9791 154.653C61.5438 154.517 60.7613 154.943 60.8567 156.577C61.0015 159.041 62.0943 160.715 63.6915 160.611C64.7498 160.542 66.7722 157.842 66.4988 156.278C66.169 154.366 64.3097 154.863 62.9791 154.653Z" fill="#008D54"/>
<path fill-rule="evenodd" clip-rule="evenodd" d="M80.1271 157.597C78.7183 157.437 77.8852 157.799 77.9748 159.457C78.1093 161.91 79.1963 163.598 80.7855 163.52C81.8576 163.464 84.2121 160.231 83.5847 159.082C83.0619 158.122 80.2041 157.437 80.1271 157.597Z" fill="#008D54"/>
<path fill-rule="evenodd" clip-rule="evenodd" d="M94.3587 163.368C94.1783 161.865 94.7413 161.116 96.3041 161.249C96.9706 161.306 97.6577 161.26 98.3024 161.407C100.21 161.852 100.408 162.261 99.7089 164.057C99.5112 164.569 99.378 165.164 99.0263 165.547C98.4506 166.171 97.6152 167.176 97.0774 167.068C96.242 166.905 95.4492 166.031 94.862 165.285C94.4874 164.807 94.5115 164.016 94.3587 163.368Z" fill="#008D54"/>
<path fill-rule="evenodd" clip-rule="evenodd" d="M240.557 127.584C242.08 123.436 245.499 121.128 249.532 121.852C252.341 122.359 254.789 123.891 256.194 126.385C257.434 128.594 258.444 131.035 259.01 133.494C260.659 140.666 262.193 147.871 263.452 155.12C264.07 158.688 263.467 162.189 260.837 165.117C256.904 169.5 251.047 169.303 247.663 164.553C247.317 164.068 246.966 163.589 246.476 162.914C245.17 166.799 243.022 169.541 239.134 170.749C234.752 172.114 232.096 169.776 230.026 166.673C228.935 168.43 228.143 170.124 226.979 171.505C223.256 175.923 217.235 175.7 214.009 170.975C212.816 169.231 211.774 167.222 211.285 165.184C209.842 159.161 208.596 153.081 207.491 146.989C206.856 143.508 206.145 139.922 206.343 136.433C206.714 129.902 213.363 125.327 219.63 129.958C220.703 130.749 221.705 131.637 222.745 132.487C224.943 124.319 232.138 120.978 239.937 129.508C240.155 128.831 240.332 128.199 240.557 127.584ZM244.428 139.341C245.326 144.229 246.012 149.165 247.198 153.98C247.95 157.03 249.216 160.024 250.688 162.814C251.933 165.171 253.544 165.466 256.023 164.402C258.393 163.384 260.024 161.552 260.018 158.928C260.011 155.628 259.948 152.258 259.286 149.049C258.045 143.048 256.409 137.128 254.822 131.206C254.28 129.181 253.21 127.458 251.331 126.204C247.071 123.361 244.112 126.538 243.416 130.063C243.31 130.601 243.354 131.167 243.331 131.717C243.232 131.739 243.965 136.819 244.428 139.341ZM227.354 142.145C228.213 146.85 228.831 151.618 230.015 156.24C230.875 159.574 232.379 162.769 233.823 165.92C234.662 167.748 236.425 167.955 238.271 167.456C240.822 166.769 242.969 164.39 242.96 161.726C242.948 158.733 242.949 155.666 242.336 152.762C240.968 146.289 239.288 139.88 237.586 133.485C237.098 131.659 235.972 130.156 234.275 129.008C230.003 126.127 227.064 129.403 226.351 132.869C226.242 133.404 226.29 133.969 226.265 134.523C226.169 134.541 226.894 139.622 227.354 142.145ZM225.604 156.028C224.173 149.691 222.637 143.373 220.844 137.134C220.377 135.506 219.084 133.824 217.699 132.809C213.852 129.999 209.766 132.08 209.675 136.923C209.621 139.764 210.132 142.644 210.617 145.464C211.508 150.658 212.358 155.878 213.639 160.98C214.389 163.957 215.835 166.784 217.181 169.574C217.975 171.215 219.563 171.501 221.315 171.088C224.393 170.359 226.204 167.82 226.397 162.628C226.24 161.254 226.182 158.582 225.604 156.028Z" fill="black"/>
<path fill-rule="evenodd" clip-rule="evenodd" d="M243.331 131.718C243.355 131.168 243.31 130.602 243.416 130.064C244.111 126.539 247.071 123.362 251.331 126.205C253.21 127.459 254.28 129.182 254.822 131.207C256.409 137.13 258.045 143.051 259.286 149.05C259.948 152.26 260.011 155.629 260.018 158.929C260.025 161.552 258.393 163.385 256.023 164.403C253.545 165.467 251.933 165.172 250.688 162.815C249.216 160.025 247.95 157.032 247.198 153.981C246.012 149.166 245.326 144.23 244.428 139.343C243.965 136.819 243.232 131.739 243.331 131.718Z" fill="#00DC82"/>
<path fill-rule="evenodd" clip-rule="evenodd" d="M226.266 134.523C226.291 133.971 226.243 133.404 226.352 132.869C227.065 129.402 230.005 126.127 234.276 129.008C235.973 130.154 237.099 131.659 237.587 133.485C239.29 139.88 240.968 146.29 242.337 152.762C242.951 155.666 242.949 158.731 242.961 161.726C242.97 164.389 240.824 166.77 238.273 167.456C236.426 167.955 234.663 167.748 233.824 165.92C232.379 162.769 230.876 159.575 230.016 156.24C228.832 151.62 228.215 146.85 227.355 142.145C226.894 139.622 226.169 134.541 226.266 134.523Z" fill="#00DC82"/>
<path fill-rule="evenodd" clip-rule="evenodd" d="M221.314 171.088C219.563 171.5 217.975 171.214 217.18 169.574C215.834 166.784 214.388 163.957 213.638 160.98C212.357 155.878 211.508 150.658 210.616 145.464C210.131 142.644 209.62 139.764 209.674 136.923C209.765 132.08 213.852 129.999 217.698 132.809C219.083 133.824 220.376 135.506 220.843 137.134C222.636 143.374 224.171 149.693 225.603 156.028C226.181 158.582 226.241 161.254 226.394 162.627C226.203 167.82 224.392 170.359 221.314 171.088Z" fill="#00DC82"/>
<path fill-rule="evenodd" clip-rule="evenodd" d="M254.6 154.653C253.271 154.863 251.411 154.366 251.08 156.277C250.807 157.841 252.829 160.542 253.888 160.61C255.485 160.715 256.578 159.042 256.723 156.576C256.818 154.943 256.037 154.518 254.6 154.653Z" fill="#008D54"/>
<path fill-rule="evenodd" clip-rule="evenodd" d="M233.995 159.082C233.368 160.231 235.723 163.465 236.794 163.52C238.383 163.597 239.47 161.91 239.604 159.458C239.693 157.8 238.86 157.438 237.451 157.597C237.376 157.438 234.517 158.122 233.995 159.082Z" fill="#008D54"/>
<path fill-rule="evenodd" clip-rule="evenodd" d="M223.222 163.368C223.401 161.865 222.838 161.116 221.276 161.249C220.61 161.306 219.922 161.261 219.277 161.408C217.369 161.852 217.173 162.261 217.872 164.057C218.069 164.569 218.201 165.164 218.554 165.547C219.129 166.171 219.964 167.176 220.502 167.068C221.337 166.905 222.13 166.032 222.717 165.285C223.093 164.807 223.069 164.016 223.222 163.368Z" fill="#008D54"/>
</svg>
